#define dn1_width 8
#define dn1_height 8
static char dn1_bits[] = {
  0x7F, 0x7F, 0x3E, 0x3E, 0x1C, 0x1C, 0x08, 0x08, };
