#define up1_width 8
#define up1_height 8
static char up1_bits[] = {
  0x08, 0x08, 0x1C, 0x1C, 0x3E, 0x3E, 0x7F, 0x7F, };
